<svg width="141" height="41" viewBox="0 0 141 41" fill="none" xmlns="http://www.w3.org/2000/svg">
<path d="M139.423 36.329C139.423 38.4874 137.638 40.2358 135.43 40.2358H4.77598C2.56941 40.2358 0.77832 38.4874 0.77832 36.329V5.17323C0.77832 3.0158 2.56941 1.26129 4.77598 1.26129H135.429C137.638 1.26129 139.422 3.0158 139.422 5.17323L139.423 36.329Z" fill="#354C53"/>
<path d="M135.01 1.30841C137.414 1.30841 139.37 3.21584 139.37 5.55995V35.9371C139.37 38.2812 137.414 40.1887 135.01 40.1887H5.19268C2.78847 40.1887 0.832127 38.2812 0.832127 35.9371V5.55995C0.832127 3.21584 2.78847 1.30841 5.19268 1.30841H135.01ZM135.01 0.497086H5.19268C2.338 0.497086 0 2.77664 0 5.55995V35.9371C0 38.7204 2.338 41 5.19268 41H135.01C137.864 41 140.202 38.7204 140.202 35.9371V5.55995C140.202 2.77664 137.864 0.497086 135.01 0.497086Z" fill="#A6A6A6"/>
<path d="M31.2903 20.5299C31.2602 17.2663 34.031 15.6786 34.1577 15.6047C32.5885 13.374 30.1562 13.0692 29.3015 13.0449C27.2587 12.8353 25.2772 14.2367 24.2366 14.2367C23.1752 14.2367 21.5727 13.0652 19.8456 13.0996C17.6232 13.133 15.544 14.3876 14.4037 16.3358C12.0504 20.3081 13.8055 26.1456 16.0602 29.3565C17.188 30.929 18.5059 32.6848 20.2309 32.623C21.9185 32.5552 22.5489 31.574 24.5855 31.574C26.6034 31.574 27.1953 32.623 28.9546 32.5835C30.7658 32.5552 31.9061 31.0039 32.9945 29.4172C34.2979 27.6148 34.8213 25.8398 34.8421 25.7487C34.7995 25.7345 31.3246 24.4414 31.2903 20.5299Z" fill="white"/>
<path d="M27.967 10.9327C28.8747 9.82596 29.4957 8.32027 29.3233 6.7923C28.0096 6.849 26.3666 7.6783 25.4205 8.76074C24.5834 9.71458 23.8357 11.278 24.0288 12.7482C25.5046 12.8556 27.0198 12.0222 27.967 10.9327Z" fill="white"/>
<path d="M55.7129 32.3971H53.3544L52.0624 28.439H47.5718L46.3411 32.3971H44.0449L48.494 18.9218H51.242L55.7129 32.3971ZM51.673 26.7784L50.5046 23.2597C50.381 22.9002 50.1494 22.0537 49.8078 20.7212H49.7662C49.6302 21.2943 49.411 22.1408 49.1099 23.2597L47.9623 26.7784H51.673Z" fill="white"/>
<path d="M67.1538 27.4193C67.1538 29.0719 66.6958 30.3781 65.7798 31.337C64.9593 32.1906 63.9405 32.6169 62.7244 32.6169C61.4117 32.6169 60.4687 32.1572 59.8944 31.2377H59.8528V36.3563H57.6387V25.8792C57.6387 24.8403 57.6106 23.7741 57.5566 22.6805H59.5039L59.6275 24.2206H59.669C60.4074 23.0602 61.528 22.481 63.0318 22.481C64.2074 22.481 65.1888 22.9336 65.974 23.8399C66.7612 24.7472 67.1538 25.94 67.1538 27.4193ZM64.8981 27.4983C64.8981 26.5526 64.68 25.7729 64.2417 25.1593C63.7629 24.5193 63.1201 24.1994 62.3142 24.1994C61.7679 24.1994 61.2715 24.3776 60.828 24.7289C60.3835 25.0833 60.0927 25.5461 59.9567 26.1192C59.8882 26.3865 59.8539 26.6052 59.8539 26.7774V28.3975C59.8539 29.1043 60.0761 29.7007 60.5206 30.1877C60.9651 30.6748 61.5425 30.9178 62.2529 30.9178C63.0868 30.9178 63.7359 30.6039 64.2002 29.9781C64.6654 29.3513 64.8981 28.5251 64.8981 27.4983Z" fill="white"/>
<path d="M78.6176 27.4193C78.6176 29.0719 78.1596 30.3781 77.2425 31.337C76.4231 32.1906 75.4043 32.6169 74.1882 32.6169C72.8755 32.6169 71.9325 32.1572 71.3592 31.2377H71.3177V36.3563H69.1035V25.8792C69.1035 24.8403 69.0755 23.7741 69.0215 22.6805H70.9687L71.0923 24.2206H71.1339C71.8712 23.0602 72.9918 22.481 74.4967 22.481C75.6712 22.481 76.6527 22.9336 77.4399 23.8399C78.224 24.7472 78.6176 25.94 78.6176 27.4193ZM76.3619 27.4983C76.3619 26.5526 76.1427 25.7729 75.7045 25.1593C75.2257 24.5193 74.5849 24.1994 73.778 24.1994C73.2307 24.1994 72.7353 24.3776 72.2908 24.7289C71.8463 25.0833 71.5565 25.5461 71.4205 26.1192C71.353 26.3865 71.3177 26.6052 71.3177 26.7774V28.3975C71.3177 29.1043 71.5399 29.7007 71.9823 30.1877C72.4268 30.6737 73.0043 30.9178 73.7167 30.9178C74.5507 30.9178 75.1997 30.6039 75.664 29.9781C76.1292 29.3513 76.3619 28.5251 76.3619 27.4983Z" fill="white"/>
<path d="M91.4326 28.6182C91.4326 29.7644 91.0244 30.697 90.205 31.417C89.3046 32.2037 88.0511 32.5966 86.4403 32.5966C84.9531 32.5966 83.7609 32.3171 82.8584 31.7572L83.3714 29.9578C84.3435 30.531 85.4101 30.8185 86.5722 30.8185C87.4062 30.8185 88.0552 30.6342 88.5215 30.2677C88.9858 29.9011 89.2174 29.409 89.2174 28.7954C89.2174 28.2486 89.0263 27.7879 88.643 27.4143C88.2619 27.0406 87.6253 26.6933 86.7363 26.3723C84.3165 25.4924 83.1077 24.2034 83.1077 22.5084C83.1077 21.4006 83.5314 20.4923 84.3799 19.7855C85.2252 19.0778 86.3531 18.7244 87.7634 18.7244C89.0211 18.7244 90.0658 18.938 90.8998 19.3643L90.3462 21.1242C89.5673 20.711 88.6867 20.5045 87.7011 20.5045C86.9222 20.5045 86.3136 20.6918 85.8774 21.0644C85.5087 21.3976 85.3239 21.8036 85.3239 22.2846C85.3239 22.8172 85.5347 23.2577 85.9584 23.604C86.3271 23.9239 86.997 24.2702 87.969 24.6439C89.1582 25.1107 90.0316 25.6564 90.5934 26.2822C91.1532 26.906 91.4326 27.6866 91.4326 28.6182Z" fill="white"/>
<path d="M98.7528 24.3006H96.3122V29.0182C96.3122 30.2181 96.7422 30.8176 97.6042 30.8176C97.9999 30.8176 98.328 30.7841 98.5877 30.7173L98.6489 32.3567C98.2128 32.5156 97.6384 32.5956 96.9271 32.5956C96.0526 32.5956 95.3692 32.3354 94.8759 31.816C94.3847 31.2955 94.1375 30.4227 94.1375 29.1964V24.2986H92.6836V22.6785H94.1375V20.8994L96.3122 20.2595V22.6785H98.7528V24.3006Z" fill="white"/>
<path d="M109.764 27.4589C109.764 28.9524 109.326 30.1786 108.451 31.1375C107.534 32.1248 106.317 32.6169 104.8 32.6169C103.338 32.6169 102.173 32.144 101.305 31.1983C100.437 30.2525 100.003 29.0587 100.003 27.6198C100.003 26.1142 100.449 24.8808 101.346 23.9219C102.24 22.962 103.447 22.4821 104.964 22.4821C106.426 22.4821 107.603 22.9549 108.491 23.9017C109.34 24.8201 109.764 26.0058 109.764 27.4589ZM107.467 27.5287C107.467 26.6326 107.271 25.864 106.873 25.2231C106.409 24.4475 105.745 24.0607 104.885 24.0607C103.995 24.0607 103.319 24.4485 102.855 25.2231C102.457 25.8651 102.261 26.6458 102.261 27.5692C102.261 28.4653 102.457 29.2339 102.855 29.8738C103.334 30.6495 104.002 31.0363 104.865 31.0363C105.711 31.0363 106.374 30.6414 106.853 29.8536C107.261 29.2005 107.467 28.4238 107.467 27.5287Z" fill="white"/>
<path d="M116.962 24.5791C116.743 24.5396 116.509 24.5193 116.264 24.5193C115.485 24.5193 114.883 24.8059 114.459 25.38C114.09 25.8863 113.905 26.5262 113.905 27.2988V32.3971H111.692L111.713 25.7405C111.713 24.6206 111.685 23.6009 111.63 22.6815H113.558L113.639 24.5406H113.701C113.934 23.9017 114.303 23.3873 114.808 23.0015C115.301 22.6542 115.834 22.481 116.408 22.481C116.613 22.481 116.798 22.4952 116.962 22.5205V24.5791Z" fill="white"/>
<path d="M126.863 27.0791C126.863 27.466 126.838 27.792 126.782 28.0583H120.14C120.166 29.0182 120.487 29.7523 121.104 30.2586C121.664 30.7112 122.387 30.9381 123.276 30.9381C124.26 30.9381 125.157 30.7852 125.964 30.4784L126.311 31.977C125.368 32.3779 124.255 32.5774 122.97 32.5774C121.425 32.5774 120.212 32.1339 119.329 31.2479C118.448 30.3619 118.007 29.1721 118.007 27.6796C118.007 26.2144 118.417 24.9943 119.239 24.0212C120.098 22.9823 121.261 22.4628 122.723 22.4628C124.159 22.4628 125.246 22.9823 125.985 24.0212C126.57 24.8464 126.863 25.8671 126.863 27.0791ZM124.752 26.5192C124.767 25.8792 124.622 25.3264 124.322 24.8596C123.939 24.2591 123.35 23.9594 122.558 23.9594C121.834 23.9594 121.245 24.252 120.795 24.8393C120.427 25.3061 120.207 25.8661 120.14 26.5182H124.752V26.5192Z" fill="white"/>
<path d="M50.9405 10.632C50.9405 11.8238 50.5739 12.7209 49.8417 13.3234C49.1635 13.8793 48.1998 14.1577 46.9515 14.1577C46.3325 14.1577 45.8028 14.1314 45.3594 14.0788V7.56691C45.9378 7.47578 46.561 7.4292 47.2339 7.4292C48.4231 7.4292 49.3193 7.68133 49.9237 8.18559C50.6009 8.75567 50.9405 9.57079 50.9405 10.632ZM49.7929 10.6613C49.7929 9.88874 49.5831 9.29638 49.1635 8.88325C48.744 8.47114 48.1312 8.26457 47.3243 8.26457C46.9816 8.26457 46.6897 8.28685 46.4478 8.33343V13.2839C46.5817 13.3041 46.8268 13.3133 47.183 13.3133C48.016 13.3133 48.6588 13.0875 49.1116 12.6358C49.5644 12.1842 49.7929 11.5261 49.7929 10.6613Z" fill="white"/>
<path d="M57.0254 11.6729C57.0254 12.407 56.8104 13.0084 56.3805 13.4803C55.9297 13.9653 55.3326 14.2073 54.5869 14.2073C53.8682 14.2073 53.296 13.9755 52.8692 13.5097C52.4434 13.0449 52.2305 12.4586 52.2305 11.7518C52.2305 11.0127 52.4496 10.4061 52.8899 9.93529C53.3303 9.46444 53.9222 9.22852 54.6679 9.22852C55.3866 9.22852 55.964 9.46039 56.4012 9.92517C56.8166 10.3768 57.0254 10.96 57.0254 11.6729ZM55.8965 11.7073C55.8965 11.2668 55.7989 10.8891 55.6047 10.5742C55.3762 10.1935 55.0511 10.0031 54.6285 10.0031C54.1912 10.0031 53.8589 10.1935 53.6304 10.5742C53.4352 10.8891 53.3386 11.2729 53.3386 11.7265C53.3386 12.167 53.4362 12.5447 53.6304 12.8596C53.8662 13.2403 54.1943 13.4307 54.6181 13.4307C55.0335 13.4307 55.3596 13.2373 55.5943 12.8495C55.7958 12.5285 55.8965 12.1478 55.8965 11.7073Z" fill="white"/>
<path d="M65.185 9.32568L63.6532 14.099H62.6562L62.0216 12.0262C61.8606 11.5088 61.7298 10.9944 61.628 10.4841H61.6083C61.5138 11.0086 61.3829 11.522 61.2147 12.0262L60.5407 14.099H59.5322L58.0918 9.32568H59.2103L59.7638 11.5949C59.8978 12.1315 60.0079 12.6429 60.0962 13.1269H60.1159C60.1969 12.7279 60.3309 12.2196 60.5199 11.605L61.2147 9.3267H62.1016L62.7673 11.5564C62.9283 12.1001 63.0591 12.6236 63.1598 13.1279H63.19C63.2637 12.6368 63.3748 12.1133 63.5223 11.5564L64.1163 9.3267H65.185V9.32568Z" fill="white"/>
<path d="M70.8264 14.099H69.738V11.365C69.738 10.5226 69.4098 10.1013 68.7514 10.1013C68.4284 10.1013 68.1677 10.2168 67.9652 10.4487C67.7648 10.6805 67.663 10.9539 67.663 11.2668V14.098H66.5746V10.6896C66.5746 10.2704 66.5611 9.81579 66.5352 9.32368H67.4916L67.5425 10.07H67.5727C67.6994 9.83807 67.8884 9.64669 68.1366 9.4938C68.4315 9.31558 68.7618 9.22546 69.1232 9.22546C69.5801 9.22546 69.9602 9.36925 70.2625 9.65783C70.6384 10.0112 70.8264 10.5388 70.8264 11.2395V14.099Z" fill="white"/>
<path d="M73.8276 14.099H72.7402V7.1355H73.8276V14.099Z" fill="white"/>
<path d="M80.2354 11.6729C80.2354 12.407 80.0204 13.0084 79.5904 13.4803C79.1397 13.9653 78.5415 14.2073 77.7969 14.2073C77.0772 14.2073 76.5049 13.9755 76.0791 13.5097C75.6533 13.0449 75.4404 12.4586 75.4404 11.7518C75.4404 11.0127 75.6596 10.4061 76.0999 9.93529C76.5402 9.46444 77.1322 9.22852 77.8768 9.22852C78.5965 9.22852 79.1729 9.46039 79.6112 9.92517C80.0266 10.3768 80.2354 10.96 80.2354 11.6729ZM79.1054 11.7073C79.1054 11.2668 79.0078 10.8891 78.8136 10.5742C78.5862 10.1935 78.2601 10.0031 77.8384 10.0031C77.4001 10.0031 77.0678 10.1935 76.8404 10.5742C76.6451 10.8891 76.5485 11.2729 76.5485 11.7265C76.5485 12.167 76.6462 12.5447 76.8404 12.8596C77.0761 13.2403 77.4043 13.4307 77.828 13.4307C78.2434 13.4307 78.5685 13.2373 78.8032 12.8495C79.0057 12.5285 79.1054 12.1478 79.1054 11.7073Z" fill="white"/>
<path d="M85.5035 14.099H84.5262L84.4452 13.5492H84.4151C84.0807 13.9876 83.604 14.2073 82.9851 14.2073C82.5229 14.2073 82.149 14.0625 81.8676 13.775C81.6121 13.5137 81.4844 13.1887 81.4844 12.8029C81.4844 12.2197 81.7336 11.7751 82.2352 11.4673C82.7358 11.1595 83.4399 11.0086 84.3466 11.0157V10.9266C84.3466 10.2978 84.008 9.9839 83.3299 9.9839C82.8469 9.9839 82.4211 10.1024 82.0535 10.3373L81.8323 9.64063C82.2872 9.36623 82.849 9.22852 83.5116 9.22852C84.7911 9.22852 85.4329 9.88669 85.4329 11.203V12.9609C85.4329 13.4378 85.4568 13.8175 85.5035 14.099ZM84.3736 12.4586V11.7225C83.173 11.7022 82.5728 12.0232 82.5728 12.6844C82.5728 12.9335 82.6413 13.1198 82.7815 13.2444C82.9217 13.3689 83.1003 13.4307 83.3132 13.4307C83.5521 13.4307 83.7754 13.3568 83.9789 13.21C84.1835 13.0621 84.3092 12.8748 84.3559 12.6449C84.3673 12.5933 84.3736 12.5305 84.3736 12.4586Z" fill="white"/>
<path d="M91.6881 14.099H90.7222L90.6713 13.3324H90.6412C90.3328 13.9157 89.8073 14.2073 89.0689 14.2073C88.479 14.2073 87.9878 13.9815 87.5983 13.5299C87.2089 13.0783 87.0146 12.492 87.0146 11.7721C87.0146 10.9995 87.2255 10.3737 87.6492 9.89577C88.0594 9.45024 88.5621 9.22747 89.1603 9.22747C89.8176 9.22747 90.2777 9.44315 90.5394 9.87552H90.5602V7.1355H91.6496V12.813C91.6496 13.2778 91.6621 13.7061 91.6881 14.099ZM90.5602 12.086V11.2901C90.5602 11.1524 90.5498 11.041 90.5301 10.9559C90.4688 10.7008 90.3369 10.4861 90.1365 10.313C89.934 10.1398 89.6899 10.0527 89.4085 10.0527C89.0024 10.0527 88.6846 10.2097 88.4509 10.5246C88.2193 10.8395 88.102 11.2415 88.102 11.7326C88.102 12.2044 88.2131 12.5872 88.4364 12.8818C88.6721 13.1957 88.9899 13.3527 89.3877 13.3527C89.745 13.3527 90.0306 13.2221 90.2476 12.9598C90.4574 12.7178 90.5602 12.4262 90.5602 12.086Z" fill="white"/>
<path d="M100.996 11.6729C100.996 12.407 100.781 13.0084 100.351 13.4803C99.9004 13.9653 99.3043 14.2073 98.5576 14.2073C97.84 14.2073 97.2678 13.9755 96.8399 13.5097C96.4141 13.0449 96.2012 12.4586 96.2012 11.7518C96.2012 11.0127 96.4203 10.4061 96.8606 9.93529C97.301 9.46444 97.8929 9.22852 98.6397 9.22852C99.3573 9.22852 99.9358 9.46039 100.372 9.92517C100.787 10.3768 100.996 10.96 100.996 11.6729ZM99.8682 11.7073C99.8682 11.2668 99.7706 10.8891 99.5764 10.5742C99.3469 10.1935 99.0229 10.0031 98.5992 10.0031C98.163 10.0031 97.8306 10.1935 97.6011 10.5742C97.4059 10.8891 97.3093 11.2729 97.3093 11.7265C97.3093 12.167 97.4069 12.5447 97.6011 12.8596C97.8369 13.2403 98.165 13.4307 98.5888 13.4307C99.0042 13.4307 99.3313 13.2373 99.566 12.8495C99.7665 12.5285 99.8682 12.1478 99.8682 11.7073Z" fill="white"/>
<path d="M106.849 14.099H105.761V11.365C105.761 10.5226 105.433 10.1013 104.774 10.1013C104.451 10.1013 104.19 10.2168 103.989 10.4487C103.787 10.6805 103.686 10.9539 103.686 11.2668V14.098H102.597V10.6896C102.597 10.2704 102.585 9.81579 102.559 9.32368H103.514L103.565 10.07H103.595C103.723 9.83807 103.912 9.64669 104.159 9.4938C104.455 9.31558 104.784 9.22546 105.147 9.22546C105.603 9.22546 105.983 9.36925 106.285 9.65783C106.662 10.0112 106.849 10.5388 106.849 11.2395V14.099Z" fill="white"/>
<path d="M114.172 10.1206H112.974V12.4394C112.974 13.0287 113.186 13.3234 113.608 13.3234C113.803 13.3234 113.965 13.3072 114.093 13.2737L114.121 14.0787C113.906 14.1577 113.624 14.1972 113.276 14.1972C112.846 14.1972 112.511 14.0696 112.269 13.8145C112.026 13.5593 111.906 13.13 111.906 12.5275V10.1206H111.19V9.32572H111.906V8.45086L112.973 8.13696V9.32471H114.171V10.1206H114.172Z" fill="white"/>
<path d="M119.935 14.099H118.846V11.3853C118.846 10.5296 118.518 10.1013 117.86 10.1013C117.356 10.1013 117.011 10.3494 116.822 10.8456C116.79 10.9499 116.771 11.0774 116.771 11.2273V14.0979H115.684V7.1355H116.771V10.0122H116.792C117.134 9.48872 117.626 9.22747 118.262 9.22747C118.713 9.22747 119.086 9.37126 119.382 9.65984C119.751 10.0193 119.935 10.5539 119.935 11.2607V14.099Z" fill="white"/>
<path d="M125.878 11.4866C125.878 11.6769 125.863 11.8369 125.837 11.9675H122.573C122.588 12.4394 122.744 12.7989 123.046 13.048C123.322 13.2707 123.678 13.3821 124.114 13.3821C124.597 13.3821 125.038 13.3072 125.434 13.1563L125.605 13.8935C125.141 14.0899 124.594 14.1881 123.962 14.1881C123.204 14.1881 122.607 13.9704 122.174 13.535C121.74 13.0996 121.525 12.5153 121.525 11.7822C121.525 11.0623 121.726 10.4629 122.13 9.98493C122.551 9.47459 123.122 9.21942 123.841 9.21942C124.545 9.21942 125.08 9.47459 125.442 9.98493C125.734 10.39 125.878 10.8912 125.878 11.4866ZM124.839 11.2122C124.848 10.8973 124.776 10.6259 124.629 10.397C124.44 10.1024 124.152 9.95455 123.762 9.95455C123.407 9.95455 123.117 10.0983 122.896 10.3869C122.716 10.6168 122.609 10.8912 122.573 11.2122H124.839Z" fill="white"/>
</svg>
