<svg width="141" height="41" viewBox="0 0 141 41" fill="none" xmlns="http://www.w3.org/2000/svg">
<path d="M135.814 41H6.17578C3.32503 41 0.990234 38.7204 0.990234 35.9371V5.55996C0.990234 2.77665 3.32503 0.497091 6.17578 0.497091H135.814C138.665 0.497091 141 2.77665 141 5.55996V35.9371C141 38.7204 138.665 41 135.814 41Z" fill="#354C53"/>
<path d="M135.814 1.30841C138.215 1.30841 140.169 3.21585 140.169 5.55996V35.9371C140.169 38.2812 138.215 40.1887 135.814 40.1887H6.17578C3.77487 40.1887 1.82122 38.2812 1.82122 35.9371V5.55996C1.82122 3.21585 3.77487 1.30841 6.17578 1.30841H135.814ZM135.814 0.497091H6.17578C3.32503 0.497091 0.990234 2.77665 0.990234 5.55996V35.9371C0.990234 38.7204 3.32503 41 6.17578 41H135.814C138.665 41 141 38.7204 141 35.9371V5.55996C141 2.77665 138.665 0.497091 135.814 0.497091Z" fill="#A6A6A6"/>
<path d="M50.167 10.8696C50.167 11.7151 49.9077 12.3923 49.397 12.8973C48.8097 13.496 48.0448 13.7972 47.1075 13.7972C46.2117 13.7972 45.4469 13.4909 44.8194 12.8871C44.1907 12.2745 43.877 11.5227 43.877 10.6228C43.877 9.72286 44.1907 8.97102 44.8194 8.36348C45.4469 7.75467 46.2117 7.44836 47.1075 7.44836C47.5535 7.44836 47.9787 7.53823 48.3845 7.7053C48.789 7.87364 49.1182 8.10147 49.3568 8.38246L48.8149 8.9166C48.3987 8.43689 47.8322 8.2002 47.1075 8.2002C46.4542 8.2002 45.8876 8.42297 45.4067 8.87229C44.9309 9.32289 44.6924 9.90638 44.6924 10.6228C44.6924 11.3392 44.9309 11.9277 45.4067 12.3783C45.8876 12.8226 46.4542 13.0504 47.1075 13.0504C47.8011 13.0504 48.3845 12.8226 48.8447 12.3733C49.1481 12.0758 49.3205 11.6657 49.3659 11.1417H47.1075V10.4101H50.1203C50.1566 10.5684 50.167 10.7215 50.167 10.8696Z" fill="white" stroke="white" stroke-width="0.16" stroke-miterlimit="10"/>
<path d="M54.9476 8.33303H52.1176V10.2569H54.6689V10.9885H52.1176V12.9124H54.9476V13.6579H51.3164V7.58752H54.9476V8.33303Z" fill="white" stroke="white" stroke-width="0.16" stroke-miterlimit="10"/>
<path d="M58.3202 13.658H57.5191V8.33315H55.7832V7.58765H60.0574V8.33315H58.3202V13.658Z" fill="white" stroke="white" stroke-width="0.16" stroke-miterlimit="10"/>
<path d="M63.1514 13.658V7.58759H63.9512V13.658H63.1514Z" fill="white" stroke="white" stroke-width="0.16" stroke-miterlimit="10"/>
<path d="M67.496 13.658H66.7013V8.33315H64.959V7.58765H69.2383V8.33315H67.496V13.658Z" fill="white" stroke="white" stroke-width="0.16" stroke-miterlimit="10"/>
<path d="M77.3304 12.877C76.7172 13.4909 75.9575 13.7972 75.0514 13.7972C74.14 13.7972 73.3803 13.4909 72.7671 12.877C72.1552 12.2644 71.8506 11.5126 71.8506 10.6228C71.8506 9.73298 72.1552 8.98115 72.7671 8.36854C73.3803 7.75467 74.14 7.44836 75.0514 7.44836C75.9523 7.44836 76.712 7.75467 77.3252 8.3736C77.9423 8.99127 78.247 9.73804 78.247 10.6228C78.247 11.5126 77.9423 12.2644 77.3304 12.877ZM73.3596 12.3682C73.8211 12.8226 74.3824 13.0504 75.0514 13.0504C75.7151 13.0504 76.2816 12.8226 76.738 12.3682C77.1982 11.9138 77.4315 11.3303 77.4315 10.6228C77.4315 9.91524 77.1982 9.33175 76.738 8.87736C76.2816 8.42297 75.7151 8.19514 75.0514 8.19514C74.3824 8.19514 73.8211 8.42297 73.3596 8.87736C72.8994 9.33175 72.666 9.91524 72.666 10.6228C72.666 11.3303 72.8994 11.9138 73.3596 12.3682Z" fill="white" stroke="white" stroke-width="0.16" stroke-miterlimit="10"/>
<path d="M79.3711 13.658V7.58765H80.3434L83.3666 12.3088H83.4016L83.3666 11.1418V7.58765H84.1664V13.658H83.3316L80.1658 8.70401H80.1308L80.1658 9.87606V13.658H79.3711Z" fill="white" stroke="white" stroke-width="0.16" stroke-miterlimit="10"/>
<path d="M71.6532 22.5231C69.2173 22.5231 67.2273 24.3331 67.2273 26.8303C67.2273 29.3073 69.2173 31.1363 71.6532 31.1363C74.0943 31.1363 76.0842 29.3073 76.0842 26.8303C76.0842 24.3331 74.0943 22.5231 71.6532 22.5231ZM71.6532 29.4402C70.3166 29.4402 69.1667 28.3631 69.1667 26.8303C69.1667 25.2773 70.3166 24.2192 71.6532 24.2192C72.9898 24.2192 74.1448 25.2773 74.1448 26.8303C74.1448 28.3631 72.9898 29.4402 71.6532 29.4402ZM61.9964 22.5231C59.5553 22.5231 57.5706 24.3331 57.5706 26.8303C57.5706 29.3073 59.5553 31.1363 61.9964 31.1363C64.4362 31.1363 66.4223 29.3073 66.4223 26.8303C66.4223 24.3331 64.4362 22.5231 61.9964 22.5231ZM61.9964 29.4402C60.6585 29.4402 59.5048 28.3631 59.5048 26.8303C59.5048 25.2773 60.6585 24.2192 61.9964 24.2192C63.333 24.2192 64.4829 25.2773 64.4829 26.8303C64.4829 28.3631 63.333 29.4402 61.9964 29.4402ZM50.5052 23.8432V25.6735H54.9817C54.8507 26.6962 54.5007 27.448 53.964 27.972C53.3106 28.6049 52.293 29.3073 50.5052 29.3073C47.7504 29.3073 45.5932 27.1366 45.5932 24.447C45.5932 21.7573 47.7504 19.5866 50.5052 19.5866C51.9948 19.5866 53.0786 20.1549 53.8784 20.8916L55.1995 19.6018C54.0807 18.5589 52.5924 17.7577 50.5052 17.7577C46.7276 17.7577 43.5527 20.7587 43.5527 24.447C43.5527 28.1353 46.7276 31.1363 50.5052 31.1363C52.5471 31.1363 54.0807 30.4832 55.2863 29.258C56.5218 28.0517 56.9068 26.3557 56.9068 24.9862C56.9068 24.5609 56.8705 24.1698 56.8057 23.8432H50.5052ZM97.494 25.2621C97.1298 24.2989 96.0058 22.5231 93.7164 22.5231C91.4477 22.5231 89.5589 24.2685 89.5589 26.8303C89.5589 29.2428 91.4283 31.1363 93.9342 31.1363C95.9604 31.1363 97.1298 29.9301 97.6107 29.2276L96.1069 28.2492C95.6052 28.9656 94.922 29.4402 93.9342 29.4402C92.9528 29.4402 92.2489 29.001 91.7977 28.1353L97.6976 25.7519L97.494 25.2621ZM91.4788 26.6962C91.4283 25.0355 92.7998 24.185 93.7825 24.185C94.5525 24.185 95.2059 24.5609 95.4237 25.0988L91.4788 26.6962ZM86.6835 30.8743H88.6229V18.2171H86.6835V30.8743ZM83.5073 23.4825H83.4425C83.0069 22.9788 82.176 22.5231 81.1233 22.5231C78.9142 22.5231 76.8945 24.4166 76.8945 26.8442C76.8945 29.258 78.9142 31.1363 81.1233 31.1363C82.176 31.1363 83.0069 30.6768 83.4425 30.1579H83.5073V30.7756C83.5073 32.4223 82.6063 33.307 81.1531 33.307C79.9682 33.307 79.2332 32.4716 78.9298 31.7691L77.2432 32.4564C77.7293 33.5981 79.0167 35.0031 81.1531 35.0031C83.427 35.0031 85.3456 33.6968 85.3456 30.5186V22.7851H83.5073V23.4825ZM81.2892 29.4402C79.9526 29.4402 78.8339 28.3479 78.8339 26.8442C78.8339 25.3267 79.9526 24.2192 81.2892 24.2192C82.6064 24.2192 83.6448 25.3267 83.6448 26.8442C83.6448 28.3479 82.6064 29.4402 81.2892 29.4402ZM106.574 18.2171H101.935V30.8743H103.87V26.0785H106.574C108.722 26.0785 110.829 24.5609 110.829 22.1472C110.829 19.7347 108.717 18.2171 106.574 18.2171ZM106.624 24.3179H103.87V19.9777H106.624C108.069 19.9777 108.893 21.1485 108.893 22.1472C108.893 23.1268 108.069 24.3179 106.624 24.3179ZM118.581 22.499C117.184 22.499 115.73 23.1015 115.133 24.4369L116.849 25.1393C117.219 24.4369 117.898 24.209 118.616 24.209C119.619 24.209 120.637 24.7976 120.653 25.8367V25.9696C120.303 25.7722 119.553 25.4798 118.632 25.4798C116.783 25.4798 114.899 26.4734 114.899 28.3277C114.899 30.0237 116.413 31.116 118.116 31.116C119.417 31.116 120.135 30.5427 120.587 29.8756H120.653V30.854H122.521V25.9988C122.521 23.7546 120.804 22.499 118.581 22.499ZM118.348 29.4352C117.715 29.4352 116.834 29.1289 116.834 28.3631C116.834 27.3834 117.933 27.0075 118.884 27.0075C119.736 27.0075 120.135 27.1911 120.653 27.4328C120.501 28.6049 119.468 29.4352 118.348 29.4352ZM129.327 22.7762L127.103 28.2631H127.037L124.739 22.7762H122.653L126.107 30.4439L124.136 34.7107H126.157L131.479 22.7762H129.327ZM111.892 30.8743H113.831V18.2171H111.892V30.8743Z" fill="white"/>
<path d="M11.814 8.13062C11.5093 8.44198 11.333 8.92675 11.333 9.55455V31.9476C11.333 32.5754 11.5093 33.0602 11.814 33.3715L11.8892 33.4399L24.7415 20.8966V20.6005L11.8892 8.05721L11.814 8.13062Z" fill="url(#paint0_linear_1376_1335)"/>
<path d="M29.0206 25.0798L24.7412 20.8966V20.6004L29.0258 16.4172L29.1217 16.4716L34.1958 19.2904C35.6438 20.0903 35.6438 21.4067 34.1958 22.2117L29.1217 25.0253L29.0206 25.0798Z" fill="url(#paint1_linear_1376_1335)"/>
<path d="M29.1215 25.0254L24.741 20.7485L11.8135 33.3715C12.2944 33.8651 13.0787 33.9246 13.9707 33.431L29.1215 25.0254Z" fill="url(#paint2_linear_1376_1335)"/>
<path d="M29.1215 16.4717L13.9707 8.06606C13.0787 7.5775 12.2944 7.63698 11.8135 8.13061L24.741 20.7485L29.1215 16.4717Z" fill="url(#paint3_linear_1376_1335)"/>
<defs>
<linearGradient id="paint0_linear_1376_1335" x1="23.6004" y1="32.1808" x2="6.61186" y2="14.7806" gradientUnits="userSpaceOnUse">
<stop stop-color="#00A0FF"/>
<stop offset="0.0066" stop-color="#00A1FF"/>
<stop offset="0.2601" stop-color="#00BEFF"/>
<stop offset="0.5122" stop-color="#00D2FF"/>
<stop offset="0.7604" stop-color="#00DFFF"/>
<stop offset="1" stop-color="#00E3FF"/>
</linearGradient>
<linearGradient id="paint1_linear_1376_1335" x1="36.0814" y1="20.7471" x2="10.9866" y2="20.7471" gradientUnits="userSpaceOnUse">
<stop stop-color="#FFE000"/>
<stop offset="0.4087" stop-color="#FFBD00"/>
<stop offset="0.7754" stop-color="#FFA500"/>
<stop offset="1" stop-color="#FF9C00"/>
</linearGradient>
<linearGradient id="paint2_linear_1376_1335" x1="26.7395" y1="18.4236" x2="3.70171" y2="-5.1725" gradientUnits="userSpaceOnUse">
<stop stop-color="#FF3A44"/>
<stop offset="1" stop-color="#C31162"/>
</linearGradient>
<linearGradient id="paint3_linear_1376_1335" x1="8.55934" y1="40.8216" x2="18.8468" y2="30.285" gradientUnits="userSpaceOnUse">
<stop stop-color="#32A071"/>
<stop offset="0.0685" stop-color="#2DA771"/>
<stop offset="0.4762" stop-color="#15CF74"/>
<stop offset="0.8009" stop-color="#06E775"/>
<stop offset="1" stop-color="#00F076"/>
</linearGradient>
</defs>
</svg>
