<?xml version="1.0" encoding="utf-8"?>
<svg width="84" height="92" viewBox="0 0 84 92" fill="none" xmlns="http://www.w3.org/2000/svg">
<path d="M1.28586 2.80019L3.46146 2.3207C3.68334 2.27745 3.90523 2.25488 4.12899 2.25488H4.79653C5.98305 2.25488 7.06614 2.44104 8.0477 2.81148C9.02926 3.18191 9.90928 3.78363 10.6878 4.611C11.7615 5.65837 12.5587 7.02165 13.0777 8.70082C13.5967 10.38 13.7998 12.2021 13.6888 14.1652C13.5027 17.4371 12.9386 20.3385 11.9946 22.8695C11.0488 25.4005 10.0296 27.5272 8.93712 29.2496C7.84274 30.9739 6.85178 32.2921 5.96424 33.2097C5.0767 34.1273 4.59345 34.6275 4.51823 34.714L4.23993 34.9754L4.12899 45.1181L0.849609 45.3137L1.18244 4.87425L1.28586 2.80019ZM4.23993 29.7423C4.79653 29.0879 5.40765 28.2812 6.0733 27.3203C6.74084 26.3614 7.37077 25.2369 7.96309 23.9507C8.55541 22.6645 9.07439 21.2016 9.52004 19.5657C9.96381 17.9297 10.2421 16.1302 10.353 14.1671C10.4264 13.0332 10.3154 11.811 10.0202 10.5022C9.72312 9.19348 9.1496 8.10286 8.29779 7.23037C7.88975 6.83737 7.4441 6.56659 6.9646 6.4124C6.48323 6.26009 5.96424 6.183 5.40765 6.183C5.22149 6.183 5.06542 6.19428 4.93567 6.21496C4.80593 6.23753 4.64798 6.24693 4.4637 6.24693L4.24181 29.7404L4.23993 29.7423Z" fill="#F3A262"/>
<path d="M21.4118 47.4153C20.7067 47.4153 19.9019 47.2573 18.9936 46.9396C18.0854 46.6218 17.2336 46.0558 16.4363 45.2416C15.639 44.4274 14.9715 43.333 14.4356 41.9584C13.8978 40.5839 13.6289 38.8502 13.6289 36.7554C13.6289 34.6607 13.7116 33.0699 13.879 31.7273C14.0464 30.3847 14.3134 29.2696 14.6857 28.3802C15.5751 26.2667 17.2599 25.208 19.7439 25.208C19.9282 25.208 20.2065 25.2287 20.5769 25.2719C20.9473 25.3152 21.3836 25.4205 21.8838 25.5897C22.384 25.759 22.9029 26.0128 23.4407 26.3513C23.9766 26.6897 24.505 27.1448 25.024 27.7146C26.8028 29.6814 27.6923 32.5791 27.6923 36.4057C27.6923 40.2322 27.1357 43.1525 26.0244 44.9069C25.6915 45.4146 25.3286 45.832 24.9413 46.1592C24.552 46.4864 24.1534 46.7459 23.7453 46.9358C23.3373 47.1257 22.9293 47.2536 22.5231 47.3156C22.1151 47.3796 21.7446 47.4115 21.4118 47.4115V47.4153ZM19.7439 27.1128C19.4111 27.1128 19.0764 27.2388 18.7435 27.4927C18.4107 27.7465 18.1042 28.2279 17.8259 28.9368C17.5476 29.6457 17.3257 30.6291 17.1584 31.8871C16.991 33.1451 16.9083 34.7697 16.9083 36.7573C16.9083 38.5756 17.1114 40.0555 17.5194 41.1988C17.9275 42.3401 18.39 43.2352 18.909 43.8783C19.428 44.5233 19.9282 44.9633 20.4096 45.1946C20.8909 45.4277 21.2238 45.5443 21.4099 45.5443C21.5961 45.5443 21.818 45.4484 22.0775 45.2585C22.3369 45.0686 22.6134 44.7508 22.9105 44.307C23.4294 43.5041 23.7999 42.4511 24.0218 41.1499C24.2437 39.8486 24.3546 38.2691 24.3546 36.4075C24.3546 34.2508 24.112 32.5641 23.6325 31.3474C23.1512 30.1308 22.651 29.2283 22.132 28.6359C21.613 28.0229 21.1222 27.6168 20.6596 27.4156C20.1952 27.2144 19.8906 27.1147 19.742 27.1147L19.7439 27.1128Z" fill="#F3A262"/>
<path d="M31.2684 11.2598V10.7785L31.825 10.7822L41.2739 10.6073L41.2175 13.2173L34.6023 13.347V22.1773L39.104 21.7862L39.3258 24.3529L34.6004 24.744L34.6569 36.3159L40.9373 35.7499L41.1592 38.3166L34.655 38.9259H34.544L32.2105 39.144L31.3794 39.191L31.3756 39.0124L31.2646 11.2579L31.2684 11.2598ZM33.2691 7.38813L36.383 0.949707L39.4951 1.86357L36.383 8.30199L33.271 7.38813H33.2691Z" fill="#F3A262"/>
<path d="M41.3457 47.1994L40.6143 43.6248L42.2502 43.1735C45.2099 42.3499 47.0113 39.6497 47.6563 35.0691C47.9421 33.0439 47.912 30.7254 47.5679 28.1136C47.2238 25.5036 46.8383 22.9275 46.4096 20.389C46.0316 18.0216 45.7195 15.8497 45.4732 13.8735C45.2268 11.8972 45.2061 10.1785 45.413 8.71935C45.6462 7.05897 46.0918 5.68441 46.7499 4.59943C47.4081 3.51446 48.1565 2.6382 49.0008 1.97254C49.8432 1.30689 50.6912 0.857479 51.5468 0.626192C52.4024 0.396786 53.1413 0.323451 53.7656 0.411829L55.4166 0.644996L54.9127 4.23088L53.2617 3.99771C53.115 3.97703 52.8179 4.0184 52.3742 4.11994C51.9285 4.22336 51.4565 4.45653 50.9563 4.81944C50.4562 5.18235 49.9898 5.70698 49.5573 6.38956C49.1249 7.07213 48.8259 8.00104 48.6604 9.17628C48.4949 10.3515 48.5457 11.8558 48.8108 13.6911C49.076 15.5263 49.3787 17.5007 49.7172 19.6143C49.9447 20.9268 50.1553 22.2788 50.3527 23.6702C50.5502 25.0617 50.7194 26.4494 50.8623 27.8334C51.0052 29.2174 51.088 30.5524 51.1124 31.8367C51.1369 33.121 51.0673 34.3508 50.9018 35.526C50.475 38.5647 49.5931 41.0337 48.2599 42.9329C46.9267 44.832 45.1667 46.1032 42.9798 46.7463L41.3438 47.1976L41.3457 47.1994Z" fill="#F3A262"/>
<path d="M60.7087 2.25676L60.5977 37.7734L57.3184 37.8843L57.4857 2.42224L60.7087 2.25488V2.25676Z" fill="#F3A262"/>
<path d="M66.9921 7.77734V7.16998L67.5487 7.16622L76.9976 6.94434L76.9412 10.2801L70.326 10.4475V21.7298L74.8277 21.2296L75.0495 24.509L70.3241 25.0091L70.3806 39.7946L76.661 39.0725L76.8829 42.3519L70.3787 43.1304H70.2677L67.9342 43.4087L67.1068 43.4876L67.1012 43.2413L66.9902 7.77922L66.9921 7.77734Z" fill="#F3A262"/>
<path d="M31.9326 79.715L32.9762 79.1471V50.8531L32.9856 49.4785H34.4937C35.3154 49.4785 36.1277 49.644 36.9344 49.9768C37.7411 50.3096 38.4594 50.8061 39.0912 51.4698C39.723 52.1336 40.2213 52.9553 40.5842 53.935C40.9472 54.9147 41.1126 56.0523 41.0825 57.3479C41.0186 58.5495 40.7817 59.7172 40.3718 60.8548C39.96 61.9924 39.4861 63.0342 38.9502 63.9819C39.2981 64.2978 39.629 64.6682 39.9449 65.0951C40.2608 65.5219 40.5372 66.0127 40.7742 66.5636C41.0111 67.1165 41.201 67.7332 41.342 68.4121C41.4849 69.0928 41.5395 69.8411 41.5075 70.6629C41.4436 72.3063 41.0637 73.7843 40.3699 75.0949C39.6741 76.4074 38.9088 77.5206 38.0721 78.4364C37.2353 79.354 36.4606 80.0648 35.7498 80.5687C35.039 81.0727 34.6516 81.3434 34.5896 81.3735L33.3579 82.1313L31.9364 79.715H31.9326ZM36.6242 62.4155C37.0341 61.6258 37.3989 60.7965 37.7148 59.9278C38.0307 59.059 38.2037 58.1978 38.2357 57.3441C38.2977 56.1125 38.0852 55.0933 37.5963 54.2866C37.1055 53.4818 36.4982 52.9046 35.7724 52.5567V62.0827L36.4361 62.3196L36.626 62.4136L36.6242 62.4155ZM35.8194 76.776C36.5132 76.0502 37.1544 75.172 37.7392 74.1453C38.324 73.1186 38.6475 71.9585 38.7114 70.661C38.7434 69.6813 38.6174 68.8521 38.3315 68.1732C38.0476 67.4944 37.7317 66.9341 37.3838 66.4903C36.816 67.2481 36.4831 67.6749 36.3891 67.769L35.8212 68.4797V76.7741L35.8194 76.776Z" fill="#F3A262"/>
<path d="M47.12 53.3481L49.9744 53.397L56.0443 90.6774L53.1898 91.0648L50.4577 77.15H46.0557L44.7977 84.5023L41.9922 84.066L47.12 53.3481ZM50.0233 74.2467L48.4268 62.9268L46.5408 74.2467H50.0233Z" fill="#F3A262"/>
<path d="M57.3184 90.8938L57.4293 70.3525L60.7087 70.2886L60.5413 90.7979L57.3184 90.8938Z" fill="#F3A262"/>
<path d="M57.3184 49.7531L60.4868 48.9634L68.1023 69.687L67.4912 46.3308L70.8251 46.1992L71.9928 91.067L68.7135 91.1986L68.4352 80.3432L60.5977 59.1588" fill="#F3A262"/>
<path d="M73.9945 51.3022V50.6911H74.5511L84 50.4692L83.9436 53.805L77.3284 53.9724V65.2547L81.83 64.7545L82.0519 68.0339L77.3265 68.534L77.0557 84.1638L83.3362 83.4417L83.5581 86.7211L77.0539 87.4996H76.9429L74.6094 87.7779L73.7858 87.838L73.7764 87.6105L73.9926 51.3041L73.9945 51.3022Z" fill="#F3A262"/>
<path d="M60.6119 63.9785H57.3965V68.1962H60.6119V63.9785Z" fill="#E66E51"/>
<path d="M57.4193 44.8174H60.6348V40.5997H57.4193V44.8174Z" fill="#259C8E"/>
<path d="M16.902 73.7316L17.1408 56.3061L15.4033 54.6288L16.7215 53.6717C16.8004 53.5927 16.9603 53.4723 17.201 53.3125L17.6767 53.0211L18.3988 52.6544C19.3164 52.2163 20.2848 51.8665 21.3021 51.607C22.3212 51.3475 23.3479 51.2178 24.3859 51.2178C25.1042 51.2573 25.8244 51.4171 26.5427 51.6973C27.261 51.9774 27.889 52.3855 28.4287 52.9252C28.9684 53.4648 29.4065 54.1436 29.7469 54.9616C30.0853 55.7796 30.2358 56.7498 30.1963 57.8649C30.1154 59.2639 29.7769 60.74 29.179 62.297C28.5791 63.8539 27.6408 65.5707 26.3641 67.4473C26.3641 67.8065 26.3735 68.5455 26.3941 69.6624C26.4129 70.7812 26.5333 72.0674 26.7533 73.5247C26.9714 74.982 27.3118 76.5183 27.7706 78.1354C28.2294 79.7525 28.8781 81.2399 29.7168 82.5975C30.5554 83.9552 31.6235 85.0834 32.9209 85.9804C34.2165 86.8792 35.8036 87.3681 37.6821 87.447L44.4627 87.5072L44.3424 90.5008L37.5636 90.4406C35.6475 90.3616 33.9702 89.9912 32.5317 89.3331C31.0951 88.6749 29.8465 87.8269 28.7897 86.787C27.7311 85.7491 26.8624 84.5719 26.1854 83.2538C25.5066 81.9357 24.9481 80.5987 24.5081 79.2411C24.0681 77.8834 23.739 76.5559 23.519 75.2584C23.299 73.961 23.1486 72.8139 23.0696 71.8154C22.6296 72.2949 22.2009 72.7726 21.7816 73.2521C21.3622 73.7316 20.9335 74.2317 20.4935 74.7488L20.2547 90.4989L16.6613 90.4387L16.9001 74.4499L16.902 73.7316ZM20.5537 69.5383C24.5062 64.6286 26.5427 60.6968 26.6612 57.7408C26.7006 56.464 26.4618 55.5746 25.9428 55.0763C25.4239 54.578 24.8654 54.3072 24.2655 54.2677C23.8255 54.2677 23.2765 54.3373 22.6183 54.4765C21.9602 54.6175 21.3303 54.8055 20.7323 55.0462L20.5537 69.5383Z" fill="#F3A262"/>
<path d="M4.35172 49.9879C4.31411 50.9356 4.2765 52.109 4.24078 53.5061C4.20317 54.9051 4.17496 56.4376 4.15804 58.1074C4.13924 59.7772 4.13924 61.5466 4.15804 63.4176C4.17684 65.2905 4.22197 67.1502 4.29719 68.9986C4.40813 71.8849 4.57548 74.2862 4.79737 76.2042C5.01925 78.1222 5.25994 79.6772 5.51943 80.8732C5.77893 82.0691 6.03842 82.9698 6.29791 83.579C6.5574 84.1883 6.79809 84.6283 7.01998 84.8991C7.20425 85.1247 7.37161 85.2375 7.52016 85.2375C7.55588 85.1924 7.67811 85.0232 7.88119 84.7298C8.08427 84.4365 8.30616 83.7953 8.54873 82.8024C8.78941 81.8115 9.0301 80.3899 9.27079 78.5396C9.51148 76.6912 9.70516 74.1884 9.85371 71.0294C9.92704 69.0456 9.97405 57.2443 9.99286 55.1909L13.3004 55.2191C13.3004 59.6174 13.1895 70.9166 12.9676 74.3445C12.7457 77.7724 12.3922 80.6362 11.9108 82.9359C11.4295 85.2356 10.7807 86.9054 9.96653 87.9415C9.52276 88.4831 9.07711 88.8328 8.63334 88.9908C8.18957 89.1487 7.81726 89.2277 7.52204 89.2277C6.44646 89.2277 5.48371 88.7087 4.6319 87.6707C3.85342 86.6798 3.19528 85.2018 2.65938 83.2387C2.12159 81.2774 1.70414 78.7521 1.40892 75.6607C1.11182 72.5713 0.936949 68.8857 0.880538 64.6004C0.824126 60.3168 0.871136 55.3997 1.01969 49.8525" fill="#F3A262"/>
</svg>
